M48
; DRILL file {KiCad 7.0.1} date Mon Dec 23 01:12:32 2024
; FORMAT={-:-/ absolute / metric / decimal}
; #@! TF.CreationDate,2024-12-23T01:12:32-08:00
; #@! TF.GenerationSoftware,Kicad,Pcbnew,7.0.1
; #@! TF.FileFunction,Plated,1,2,PTH
FMAT,2
METRIC
; #@! TA.AperFunction,Plated,PTH,ViaDrill
T1C0.400
%
G90
G05
T1
X103.251Y-77.597
X103.251Y-115.697
X104.14Y-80.137
X104.14Y-113.157
X105.029Y-82.677
X105.029Y-110.617
X105.791Y-85.217
X105.791Y-108.077
X106.553Y-87.757
X106.556Y-105.54
X107.315Y-90.297
X107.318Y-103.0
X108.077Y-92.837
X108.077Y-95.377
X108.077Y-97.917
X108.08Y-100.46
X109.347Y-92.837
X109.347Y-95.377
X109.347Y-97.917
X109.35Y-100.46
X110.109Y-90.297
X110.109Y-102.997
X110.871Y-87.757
X110.874Y-105.54
X111.633Y-85.217
X111.633Y-108.077
X112.395Y-82.677
X112.395Y-110.617
X113.284Y-80.137
X113.284Y-113.157
X114.173Y-77.597
X114.173Y-115.697
T0
M30
