%TF.GenerationSoftware,KiCad,Pcbnew,7.0.1*%
%TF.CreationDate,2024-12-23T01:12:33-08:00*%
%TF.ProjectId,SOP32-DIP32_adapter,534f5033-322d-4444-9950-33325f616461,rev?*%
%TF.SameCoordinates,Original*%
%TF.FileFunction,Drillmap*%
%TF.FilePolarity,Positive*%
%FSLAX45Y45*%
G04 Gerber Fmt 4.5, Leading zero omitted, Abs format (unit mm)*
G04 Created by KiCad (PCBNEW 7.0.1) date 2024-12-23 01:12:33*
%MOMM*%
%LPD*%
G01*
G04 APERTURE LIST*
%ADD10C,0.100000*%
%ADD11C,0.200000*%
G04 APERTURE END LIST*
D10*
X11800000Y-11800000D02*
X9940000Y-11800000D01*
X9940000Y-11800000D02*
X9940000Y-7530000D01*
X9940000Y-7530000D02*
X10000000Y-7530000D01*
X11800000Y-7530000D02*
X11800000Y-11800000D01*
X10000000Y-7530000D02*
X11800000Y-7530000D01*
D11*
X10182619Y-12117524D02*
X10182619Y-11917524D01*
X10182619Y-11917524D02*
X10230238Y-11917524D01*
X10230238Y-11917524D02*
X10258810Y-11927048D01*
X10258810Y-11927048D02*
X10277857Y-11946095D01*
X10277857Y-11946095D02*
X10287381Y-11965143D01*
X10287381Y-11965143D02*
X10296905Y-12003238D01*
X10296905Y-12003238D02*
X10296905Y-12031809D01*
X10296905Y-12031809D02*
X10287381Y-12069905D01*
X10287381Y-12069905D02*
X10277857Y-12088952D01*
X10277857Y-12088952D02*
X10258810Y-12108000D01*
X10258810Y-12108000D02*
X10230238Y-12117524D01*
X10230238Y-12117524D02*
X10182619Y-12117524D01*
X10382619Y-12117524D02*
X10382619Y-11984190D01*
X10382619Y-12022286D02*
X10392143Y-12003238D01*
X10392143Y-12003238D02*
X10401667Y-11993714D01*
X10401667Y-11993714D02*
X10420714Y-11984190D01*
X10420714Y-11984190D02*
X10439762Y-11984190D01*
X10506429Y-12117524D02*
X10506429Y-11984190D01*
X10506429Y-11917524D02*
X10496905Y-11927048D01*
X10496905Y-11927048D02*
X10506429Y-11936571D01*
X10506429Y-11936571D02*
X10515952Y-11927048D01*
X10515952Y-11927048D02*
X10506429Y-11917524D01*
X10506429Y-11917524D02*
X10506429Y-11936571D01*
X10630238Y-12117524D02*
X10611190Y-12108000D01*
X10611190Y-12108000D02*
X10601667Y-12088952D01*
X10601667Y-12088952D02*
X10601667Y-11917524D01*
X10735000Y-12117524D02*
X10715952Y-12108000D01*
X10715952Y-12108000D02*
X10706429Y-12088952D01*
X10706429Y-12088952D02*
X10706429Y-11917524D01*
X10963571Y-12117524D02*
X10963571Y-11917524D01*
X10963571Y-11917524D02*
X11030238Y-12060381D01*
X11030238Y-12060381D02*
X11096905Y-11917524D01*
X11096905Y-11917524D02*
X11096905Y-12117524D01*
X11277857Y-12117524D02*
X11277857Y-12012762D01*
X11277857Y-12012762D02*
X11268333Y-11993714D01*
X11268333Y-11993714D02*
X11249286Y-11984190D01*
X11249286Y-11984190D02*
X11211190Y-11984190D01*
X11211190Y-11984190D02*
X11192143Y-11993714D01*
X11277857Y-12108000D02*
X11258809Y-12117524D01*
X11258809Y-12117524D02*
X11211190Y-12117524D01*
X11211190Y-12117524D02*
X11192143Y-12108000D01*
X11192143Y-12108000D02*
X11182619Y-12088952D01*
X11182619Y-12088952D02*
X11182619Y-12069905D01*
X11182619Y-12069905D02*
X11192143Y-12050857D01*
X11192143Y-12050857D02*
X11211190Y-12041333D01*
X11211190Y-12041333D02*
X11258809Y-12041333D01*
X11258809Y-12041333D02*
X11277857Y-12031809D01*
X11373095Y-11984190D02*
X11373095Y-12184190D01*
X11373095Y-11993714D02*
X11392143Y-11984190D01*
X11392143Y-11984190D02*
X11430238Y-11984190D01*
X11430238Y-11984190D02*
X11449286Y-11993714D01*
X11449286Y-11993714D02*
X11458809Y-12003238D01*
X11458809Y-12003238D02*
X11468333Y-12022286D01*
X11468333Y-12022286D02*
X11468333Y-12079428D01*
X11468333Y-12079428D02*
X11458809Y-12098476D01*
X11458809Y-12098476D02*
X11449286Y-12108000D01*
X11449286Y-12108000D02*
X11430238Y-12117524D01*
X11430238Y-12117524D02*
X11392143Y-12117524D01*
X11392143Y-12117524D02*
X11373095Y-12108000D01*
X11554048Y-12098476D02*
X11563571Y-12108000D01*
X11563571Y-12108000D02*
X11554048Y-12117524D01*
X11554048Y-12117524D02*
X11544524Y-12108000D01*
X11544524Y-12108000D02*
X11554048Y-12098476D01*
X11554048Y-12098476D02*
X11554048Y-12117524D01*
X11554048Y-11993714D02*
X11563571Y-12003238D01*
X11563571Y-12003238D02*
X11554048Y-12012762D01*
X11554048Y-12012762D02*
X11544524Y-12003238D01*
X11544524Y-12003238D02*
X11554048Y-11993714D01*
X11554048Y-11993714D02*
X11554048Y-12012762D01*
M02*
