%TF.GenerationSoftware,KiCad,Pcbnew,7.0.1*%
%TF.CreationDate,2024-12-23T01:12:25-08:00*%
%TF.ProjectId,SOP32-DIP32_adapter,534f5033-322d-4444-9950-33325f616461,rev?*%
%TF.SameCoordinates,Original*%
%TF.FileFunction,Copper,L1,Top*%
%TF.FilePolarity,Positive*%
%FSLAX46Y46*%
G04 Gerber Fmt 4.6, Leading zero omitted, Abs format (unit mm)*
G04 Created by KiCad (PCBNEW 7.0.1) date 2024-12-23 01:12:25*
%MOMM*%
%LPD*%
G01*
G04 APERTURE LIST*
G04 Aperture macros list*
%AMRoundRect*
0 Rectangle with rounded corners*
0 $1 Rounding radius*
0 $2 $3 $4 $5 $6 $7 $8 $9 X,Y pos of 4 corners*
0 Add a 4 corners polygon primitive as box body*
4,1,4,$2,$3,$4,$5,$6,$7,$8,$9,$2,$3,0*
0 Add four circle primitives for the rounded corners*
1,1,$1+$1,$2,$3*
1,1,$1+$1,$4,$5*
1,1,$1+$1,$6,$7*
1,1,$1+$1,$8,$9*
0 Add four rect primitives between the rounded corners*
20,1,$1+$1,$2,$3,$4,$5,0*
20,1,$1+$1,$4,$5,$6,$7,0*
20,1,$1+$1,$6,$7,$8,$9,0*
20,1,$1+$1,$8,$9,$2,$3,0*%
G04 Aperture macros list end*
%TA.AperFunction,SMDPad,CuDef*%
%ADD10RoundRect,0.150000X-0.875000X-0.150000X0.875000X-0.150000X0.875000X0.150000X-0.875000X0.150000X0*%
%TD*%
%TA.AperFunction,ViaPad*%
%ADD11C,0.800000*%
%TD*%
%TA.AperFunction,Conductor*%
%ADD12C,0.250000*%
%TD*%
G04 APERTURE END LIST*
D10*
%TO.P,REF\u002A\u002A,1*%
%TO.N,N/C*%
X102150000Y-87125000D03*
%TO.P,REF\u002A\u002A,2*%
X102150000Y-88395000D03*
%TO.P,REF\u002A\u002A,3*%
X102150000Y-89665000D03*
%TO.P,REF\u002A\u002A,4*%
X102150000Y-90935000D03*
%TO.P,REF\u002A\u002A,5*%
X102150000Y-92205000D03*
%TO.P,REF\u002A\u002A,6*%
X102150000Y-93475000D03*
%TO.P,REF\u002A\u002A,7*%
X102150000Y-94745000D03*
%TO.P,REF\u002A\u002A,8*%
X102150000Y-96015000D03*
%TO.P,REF\u002A\u002A,9*%
X102150000Y-97285000D03*
%TO.P,REF\u002A\u002A,10*%
X102150000Y-98555000D03*
%TO.P,REF\u002A\u002A,11*%
X102150000Y-99825000D03*
%TO.P,REF\u002A\u002A,12*%
X102150000Y-101095000D03*
%TO.P,REF\u002A\u002A,13*%
X102150000Y-102365000D03*
%TO.P,REF\u002A\u002A,14*%
X102150000Y-103635000D03*
%TO.P,REF\u002A\u002A,15*%
X102150000Y-104905000D03*
%TO.P,REF\u002A\u002A,16*%
X102150000Y-106175000D03*
%TO.P,REF\u002A\u002A,17*%
X115250000Y-106175000D03*
%TO.P,REF\u002A\u002A,18*%
X115250000Y-104905000D03*
%TO.P,REF\u002A\u002A,19*%
X115250000Y-103635000D03*
%TO.P,REF\u002A\u002A,20*%
X115250000Y-102365000D03*
%TO.P,REF\u002A\u002A,21*%
X115250000Y-101095000D03*
%TO.P,REF\u002A\u002A,22*%
X115250000Y-99825000D03*
%TO.P,REF\u002A\u002A,23*%
X115250000Y-98555000D03*
%TO.P,REF\u002A\u002A,24*%
X115250000Y-97285000D03*
%TO.P,REF\u002A\u002A,25*%
X115250000Y-96015000D03*
%TO.P,REF\u002A\u002A,26*%
X115250000Y-94745000D03*
%TO.P,REF\u002A\u002A,27*%
X115250000Y-93475000D03*
%TO.P,REF\u002A\u002A,28*%
X115250000Y-92205000D03*
%TO.P,REF\u002A\u002A,29*%
X115250000Y-90935000D03*
%TO.P,REF\u002A\u002A,30*%
X115250000Y-89665000D03*
%TO.P,REF\u002A\u002A,31*%
X115250000Y-88395000D03*
%TO.P,REF\u002A\u002A,32*%
X115250000Y-87125000D03*
%TD*%
D11*
%TO.N,*%
X111633000Y-85217000D03*
X108077000Y-92837000D03*
X104140000Y-113157000D03*
X103251000Y-77597000D03*
X105791000Y-108077000D03*
X108080000Y-100460000D03*
X112395000Y-110617000D03*
X107315000Y-90297000D03*
X106556000Y-105540000D03*
X110109000Y-90297000D03*
X106553000Y-87757000D03*
X114173000Y-115697000D03*
X103251000Y-115697000D03*
X109347000Y-95377000D03*
X105029000Y-82677000D03*
X110109000Y-102997000D03*
X105791000Y-85217000D03*
X109350000Y-100460000D03*
X112395000Y-82677000D03*
X109347000Y-92837000D03*
X114173000Y-77597000D03*
X110874000Y-105540000D03*
X108077000Y-97917000D03*
X113284000Y-113157000D03*
X105029000Y-110617000D03*
X113284000Y-80137000D03*
X111633000Y-108077000D03*
X110871000Y-87757000D03*
X104140000Y-80137000D03*
X107318000Y-103000000D03*
X108077000Y-95377000D03*
X109347000Y-97917000D03*
%TD*%
D12*
%TO.N,*%
X115250000Y-94745000D02*
X110366000Y-94745000D01*
X105032000Y-102365000D02*
X105791000Y-103124000D01*
X115277000Y-98552000D02*
X110369000Y-98552000D01*
X102174000Y-90929000D02*
X105032000Y-90929000D01*
X110871000Y-91440000D02*
X110871000Y-87757000D01*
X103251000Y-86042000D02*
X103251000Y-77597000D01*
X104140000Y-87630000D02*
X104140000Y-80137000D01*
X104270000Y-89659000D02*
X105029000Y-88900000D01*
X110109000Y-92837000D02*
X110109000Y-90297000D01*
X103378000Y-88392000D02*
X104140000Y-87630000D01*
X115277000Y-99822000D02*
X110750000Y-99822000D01*
X107439000Y-96015000D02*
X108077000Y-95377000D01*
X108080000Y-99571000D02*
X108080000Y-100460000D01*
X109347000Y-93726000D02*
X109347000Y-92837000D01*
X115247000Y-104902000D02*
X114046000Y-104902000D01*
X113919000Y-88265000D02*
X113284000Y-87630000D01*
X102174000Y-88389000D02*
X102177000Y-88392000D01*
X106680000Y-99822000D02*
X107318000Y-100460000D01*
X115274000Y-88389000D02*
X114043000Y-88389000D01*
X107318000Y-100460000D02*
X107318000Y-103000000D01*
X110747000Y-93475000D02*
X110109000Y-92837000D01*
X109985000Y-96015000D02*
X109347000Y-95377000D01*
X105791000Y-103124000D02*
X105791000Y-108077000D01*
X102150000Y-97285000D02*
X107445000Y-97285000D01*
X115277000Y-101092000D02*
X111639000Y-101092000D01*
X114046000Y-104902000D02*
X113284000Y-105664000D01*
X115274000Y-89659000D02*
X113154000Y-89659000D01*
X107058000Y-94745000D02*
X108077000Y-93726000D01*
X112395000Y-88900000D02*
X112395000Y-82677000D01*
X112392000Y-102365000D02*
X111633000Y-103124000D01*
X114173000Y-77597000D02*
X114173000Y-86018000D01*
X102174000Y-87119000D02*
X103251000Y-86042000D01*
X115250000Y-106175000D02*
X114173000Y-107252000D01*
X104140000Y-105664000D02*
X104140000Y-113157000D01*
X105029000Y-88900000D02*
X105029000Y-82677000D01*
X113154000Y-103635000D02*
X112395000Y-104394000D01*
X109979000Y-97285000D02*
X109347000Y-97917000D01*
X104270000Y-103635000D02*
X105029000Y-104394000D01*
X105032000Y-90929000D02*
X105791000Y-90170000D01*
X106553000Y-91440000D02*
X106553000Y-87757000D01*
X111639000Y-101092000D02*
X110874000Y-101857000D01*
X102177000Y-99822000D02*
X106680000Y-99822000D01*
X115250000Y-96015000D02*
X109985000Y-96015000D01*
X115250000Y-93475000D02*
X110747000Y-93475000D01*
X102150000Y-93475000D02*
X106677000Y-93475000D01*
X102177000Y-88392000D02*
X103378000Y-88392000D01*
X102150000Y-96015000D02*
X107439000Y-96015000D01*
X111633000Y-90170000D02*
X111633000Y-85217000D01*
X110750000Y-99822000D02*
X110112000Y-100460000D01*
X105788000Y-92205000D02*
X106553000Y-91440000D01*
X109350000Y-99571000D02*
X109350000Y-100460000D01*
X102150000Y-103635000D02*
X104270000Y-103635000D01*
X110874000Y-101857000D02*
X110874000Y-105540000D01*
X112395000Y-104394000D02*
X112395000Y-110617000D01*
X102150000Y-94745000D02*
X107058000Y-94745000D01*
X102177000Y-101092000D02*
X105791000Y-101092000D01*
X115274000Y-90929000D02*
X112392000Y-90929000D01*
X102150000Y-104905000D02*
X103381000Y-104905000D01*
X107061000Y-98552000D02*
X108080000Y-99571000D01*
X106556000Y-101857000D02*
X106556000Y-105540000D01*
X110112000Y-100460000D02*
X110109000Y-102997000D01*
X110109000Y-102997000D02*
X110112000Y-103000000D01*
X102174000Y-89659000D02*
X104270000Y-89659000D01*
X115250000Y-102365000D02*
X112392000Y-102365000D01*
X110366000Y-94745000D02*
X109347000Y-93726000D01*
X103505000Y-105029000D02*
X104140000Y-105664000D01*
X111636000Y-92205000D02*
X110871000Y-91440000D01*
X105791000Y-90170000D02*
X105791000Y-85217000D01*
X113284000Y-105664000D02*
X113284000Y-113157000D01*
X106677000Y-93475000D02*
X107315000Y-92837000D01*
X113284000Y-87630000D02*
X113284000Y-80137000D01*
X102177000Y-98552000D02*
X107061000Y-98552000D01*
X103251000Y-107276000D02*
X102150000Y-106175000D01*
X114173000Y-86018000D02*
X115274000Y-87119000D01*
X115250000Y-97285000D02*
X109979000Y-97285000D01*
X105029000Y-104394000D02*
X105029000Y-110617000D01*
X105791000Y-101092000D02*
X106556000Y-101857000D01*
X115250000Y-104905000D02*
X115247000Y-104902000D01*
X111633000Y-103124000D02*
X111633000Y-108077000D01*
X114173000Y-107252000D02*
X114173000Y-115697000D01*
X114043000Y-88389000D02*
X113919000Y-88265000D01*
X103251000Y-115697000D02*
X103251000Y-107276000D01*
X103381000Y-104905000D02*
X103505000Y-105029000D01*
X107315000Y-92837000D02*
X107315000Y-90297000D01*
X110369000Y-98552000D02*
X109350000Y-99571000D01*
X115250000Y-103635000D02*
X113154000Y-103635000D01*
X108077000Y-93726000D02*
X108077000Y-92837000D01*
X113154000Y-89659000D02*
X112395000Y-88900000D01*
X112392000Y-90929000D02*
X111633000Y-90170000D01*
X107445000Y-97285000D02*
X108077000Y-97917000D01*
X115250000Y-92205000D02*
X111636000Y-92205000D01*
X102150000Y-102365000D02*
X105032000Y-102365000D01*
X102150000Y-92205000D02*
X105788000Y-92205000D01*
%TD*%
M02*
