%TF.GenerationSoftware,KiCad,Pcbnew,7.0.1*%
%TF.CreationDate,2024-12-23T01:12:33-08:00*%
%TF.ProjectId,SOP32-DIP32_adapter,534f5033-322d-4444-9950-33325f616461,rev?*%
%TF.SameCoordinates,Original*%
%TF.FileFunction,Drillmap*%
%TF.FilePolarity,Positive*%
%FSLAX45Y45*%
G04 Gerber Fmt 4.5, Leading zero omitted, Abs format (unit mm)*
G04 Created by KiCad (PCBNEW 7.0.1) date 2024-12-23 01:12:33*
%MOMM*%
%LPD*%
G01*
G04 APERTURE LIST*
%ADD10C,0.100000*%
%ADD11C,0.200000*%
%ADD12C,0.040000*%
G04 APERTURE END LIST*
D10*
X11800000Y-11800000D02*
X9940000Y-11800000D01*
X9940000Y-11800000D02*
X9940000Y-7530000D01*
X9940000Y-7530000D02*
X10000000Y-7530000D01*
X11800000Y-7530000D02*
X11800000Y-11800000D01*
X10000000Y-7530000D02*
X11800000Y-7530000D01*
D11*
D12*
X10305100Y-7739700D02*
X10345100Y-7779700D01*
X10345100Y-7739700D02*
X10305100Y-7779700D01*
X10305100Y-11549700D02*
X10345100Y-11589700D01*
X10345100Y-11549700D02*
X10305100Y-11589700D01*
X10394000Y-7993700D02*
X10434000Y-8033700D01*
X10434000Y-7993700D02*
X10394000Y-8033700D01*
X10394000Y-11295700D02*
X10434000Y-11335700D01*
X10434000Y-11295700D02*
X10394000Y-11335700D01*
X10482900Y-8247700D02*
X10522900Y-8287700D01*
X10522900Y-8247700D02*
X10482900Y-8287700D01*
X10482900Y-11041700D02*
X10522900Y-11081700D01*
X10522900Y-11041700D02*
X10482900Y-11081700D01*
X10559100Y-8501700D02*
X10599100Y-8541700D01*
X10599100Y-8501700D02*
X10559100Y-8541700D01*
X10559100Y-10787700D02*
X10599100Y-10827700D01*
X10599100Y-10787700D02*
X10559100Y-10827700D01*
X10635300Y-8755700D02*
X10675300Y-8795700D01*
X10675300Y-8755700D02*
X10635300Y-8795700D01*
X10635600Y-10534000D02*
X10675600Y-10574000D01*
X10675600Y-10534000D02*
X10635600Y-10574000D01*
X10711500Y-9009700D02*
X10751500Y-9049700D01*
X10751500Y-9009700D02*
X10711500Y-9049700D01*
X10711800Y-10280000D02*
X10751800Y-10320000D01*
X10751800Y-10280000D02*
X10711800Y-10320000D01*
X10787700Y-9263700D02*
X10827700Y-9303700D01*
X10827700Y-9263700D02*
X10787700Y-9303700D01*
X10787700Y-9517700D02*
X10827700Y-9557700D01*
X10827700Y-9517700D02*
X10787700Y-9557700D01*
X10787700Y-9771700D02*
X10827700Y-9811700D01*
X10827700Y-9771700D02*
X10787700Y-9811700D01*
X10788000Y-10026000D02*
X10828000Y-10066000D01*
X10828000Y-10026000D02*
X10788000Y-10066000D01*
X10914700Y-9263700D02*
X10954700Y-9303700D01*
X10954700Y-9263700D02*
X10914700Y-9303700D01*
X10914700Y-9517700D02*
X10954700Y-9557700D01*
X10954700Y-9517700D02*
X10914700Y-9557700D01*
X10914700Y-9771700D02*
X10954700Y-9811700D01*
X10954700Y-9771700D02*
X10914700Y-9811700D01*
X10915000Y-10026000D02*
X10955000Y-10066000D01*
X10955000Y-10026000D02*
X10915000Y-10066000D01*
X10990900Y-9009700D02*
X11030900Y-9049700D01*
X11030900Y-9009700D02*
X10990900Y-9049700D01*
X10990900Y-10279700D02*
X11030900Y-10319700D01*
X11030900Y-10279700D02*
X10990900Y-10319700D01*
X11067100Y-8755700D02*
X11107100Y-8795700D01*
X11107100Y-8755700D02*
X11067100Y-8795700D01*
X11067400Y-10534000D02*
X11107400Y-10574000D01*
X11107400Y-10534000D02*
X11067400Y-10574000D01*
X11143300Y-8501700D02*
X11183300Y-8541700D01*
X11183300Y-8501700D02*
X11143300Y-8541700D01*
X11143300Y-10787700D02*
X11183300Y-10827700D01*
X11183300Y-10787700D02*
X11143300Y-10827700D01*
X11219500Y-8247700D02*
X11259500Y-8287700D01*
X11259500Y-8247700D02*
X11219500Y-8287700D01*
X11219500Y-11041700D02*
X11259500Y-11081700D01*
X11259500Y-11041700D02*
X11219500Y-11081700D01*
X11308400Y-7993700D02*
X11348400Y-8033700D01*
X11348400Y-7993700D02*
X11308400Y-8033700D01*
X11308400Y-11295700D02*
X11348400Y-11335700D01*
X11348400Y-11295700D02*
X11308400Y-11335700D01*
X11397300Y-7739700D02*
X11437300Y-7779700D01*
X11437300Y-7739700D02*
X11397300Y-7779700D01*
X11397300Y-11549700D02*
X11437300Y-11589700D01*
X11437300Y-11549700D02*
X11397300Y-11589700D01*
D11*
X10182619Y-12117524D02*
X10182619Y-11917524D01*
X10182619Y-11917524D02*
X10230238Y-11917524D01*
X10230238Y-11917524D02*
X10258810Y-11927048D01*
X10258810Y-11927048D02*
X10277857Y-11946095D01*
X10277857Y-11946095D02*
X10287381Y-11965143D01*
X10287381Y-11965143D02*
X10296905Y-12003238D01*
X10296905Y-12003238D02*
X10296905Y-12031809D01*
X10296905Y-12031809D02*
X10287381Y-12069905D01*
X10287381Y-12069905D02*
X10277857Y-12088952D01*
X10277857Y-12088952D02*
X10258810Y-12108000D01*
X10258810Y-12108000D02*
X10230238Y-12117524D01*
X10230238Y-12117524D02*
X10182619Y-12117524D01*
X10382619Y-12117524D02*
X10382619Y-11984190D01*
X10382619Y-12022286D02*
X10392143Y-12003238D01*
X10392143Y-12003238D02*
X10401667Y-11993714D01*
X10401667Y-11993714D02*
X10420714Y-11984190D01*
X10420714Y-11984190D02*
X10439762Y-11984190D01*
X10506429Y-12117524D02*
X10506429Y-11984190D01*
X10506429Y-11917524D02*
X10496905Y-11927048D01*
X10496905Y-11927048D02*
X10506429Y-11936571D01*
X10506429Y-11936571D02*
X10515952Y-11927048D01*
X10515952Y-11927048D02*
X10506429Y-11917524D01*
X10506429Y-11917524D02*
X10506429Y-11936571D01*
X10630238Y-12117524D02*
X10611190Y-12108000D01*
X10611190Y-12108000D02*
X10601667Y-12088952D01*
X10601667Y-12088952D02*
X10601667Y-11917524D01*
X10735000Y-12117524D02*
X10715952Y-12108000D01*
X10715952Y-12108000D02*
X10706429Y-12088952D01*
X10706429Y-12088952D02*
X10706429Y-11917524D01*
X10963571Y-12117524D02*
X10963571Y-11917524D01*
X10963571Y-11917524D02*
X11030238Y-12060381D01*
X11030238Y-12060381D02*
X11096905Y-11917524D01*
X11096905Y-11917524D02*
X11096905Y-12117524D01*
X11277857Y-12117524D02*
X11277857Y-12012762D01*
X11277857Y-12012762D02*
X11268333Y-11993714D01*
X11268333Y-11993714D02*
X11249286Y-11984190D01*
X11249286Y-11984190D02*
X11211190Y-11984190D01*
X11211190Y-11984190D02*
X11192143Y-11993714D01*
X11277857Y-12108000D02*
X11258809Y-12117524D01*
X11258809Y-12117524D02*
X11211190Y-12117524D01*
X11211190Y-12117524D02*
X11192143Y-12108000D01*
X11192143Y-12108000D02*
X11182619Y-12088952D01*
X11182619Y-12088952D02*
X11182619Y-12069905D01*
X11182619Y-12069905D02*
X11192143Y-12050857D01*
X11192143Y-12050857D02*
X11211190Y-12041333D01*
X11211190Y-12041333D02*
X11258809Y-12041333D01*
X11258809Y-12041333D02*
X11277857Y-12031809D01*
X11373095Y-11984190D02*
X11373095Y-12184190D01*
X11373095Y-11993714D02*
X11392143Y-11984190D01*
X11392143Y-11984190D02*
X11430238Y-11984190D01*
X11430238Y-11984190D02*
X11449286Y-11993714D01*
X11449286Y-11993714D02*
X11458809Y-12003238D01*
X11458809Y-12003238D02*
X11468333Y-12022286D01*
X11468333Y-12022286D02*
X11468333Y-12079428D01*
X11468333Y-12079428D02*
X11458809Y-12098476D01*
X11458809Y-12098476D02*
X11449286Y-12108000D01*
X11449286Y-12108000D02*
X11430238Y-12117524D01*
X11430238Y-12117524D02*
X11392143Y-12117524D01*
X11392143Y-12117524D02*
X11373095Y-12108000D01*
X11554048Y-12098476D02*
X11563571Y-12108000D01*
X11563571Y-12108000D02*
X11554048Y-12117524D01*
X11554048Y-12117524D02*
X11544524Y-12108000D01*
X11544524Y-12108000D02*
X11554048Y-12098476D01*
X11554048Y-12098476D02*
X11554048Y-12117524D01*
X11554048Y-11993714D02*
X11563571Y-12003238D01*
X11563571Y-12003238D02*
X11554048Y-12012762D01*
X11554048Y-12012762D02*
X11544524Y-12003238D01*
X11544524Y-12003238D02*
X11554048Y-11993714D01*
X11554048Y-11993714D02*
X11554048Y-12012762D01*
D12*
X9895000Y-12425000D02*
X9935000Y-12465000D01*
X9935000Y-12425000D02*
X9895000Y-12465000D01*
D11*
X10220714Y-12337524D02*
X10239762Y-12337524D01*
X10239762Y-12337524D02*
X10258810Y-12347048D01*
X10258810Y-12347048D02*
X10268333Y-12356571D01*
X10268333Y-12356571D02*
X10277857Y-12375619D01*
X10277857Y-12375619D02*
X10287381Y-12413714D01*
X10287381Y-12413714D02*
X10287381Y-12461333D01*
X10287381Y-12461333D02*
X10277857Y-12499428D01*
X10277857Y-12499428D02*
X10268333Y-12518476D01*
X10268333Y-12518476D02*
X10258810Y-12528000D01*
X10258810Y-12528000D02*
X10239762Y-12537524D01*
X10239762Y-12537524D02*
X10220714Y-12537524D01*
X10220714Y-12537524D02*
X10201667Y-12528000D01*
X10201667Y-12528000D02*
X10192143Y-12518476D01*
X10192143Y-12518476D02*
X10182619Y-12499428D01*
X10182619Y-12499428D02*
X10173095Y-12461333D01*
X10173095Y-12461333D02*
X10173095Y-12413714D01*
X10173095Y-12413714D02*
X10182619Y-12375619D01*
X10182619Y-12375619D02*
X10192143Y-12356571D01*
X10192143Y-12356571D02*
X10201667Y-12347048D01*
X10201667Y-12347048D02*
X10220714Y-12337524D01*
X10373095Y-12518476D02*
X10382619Y-12528000D01*
X10382619Y-12528000D02*
X10373095Y-12537524D01*
X10373095Y-12537524D02*
X10363571Y-12528000D01*
X10363571Y-12528000D02*
X10373095Y-12518476D01*
X10373095Y-12518476D02*
X10373095Y-12537524D01*
X10554048Y-12404190D02*
X10554048Y-12537524D01*
X10506429Y-12328000D02*
X10458810Y-12470857D01*
X10458810Y-12470857D02*
X10582619Y-12470857D01*
X10696905Y-12337524D02*
X10715952Y-12337524D01*
X10715952Y-12337524D02*
X10735000Y-12347048D01*
X10735000Y-12347048D02*
X10744524Y-12356571D01*
X10744524Y-12356571D02*
X10754048Y-12375619D01*
X10754048Y-12375619D02*
X10763571Y-12413714D01*
X10763571Y-12413714D02*
X10763571Y-12461333D01*
X10763571Y-12461333D02*
X10754048Y-12499428D01*
X10754048Y-12499428D02*
X10744524Y-12518476D01*
X10744524Y-12518476D02*
X10735000Y-12528000D01*
X10735000Y-12528000D02*
X10715952Y-12537524D01*
X10715952Y-12537524D02*
X10696905Y-12537524D01*
X10696905Y-12537524D02*
X10677857Y-12528000D01*
X10677857Y-12528000D02*
X10668333Y-12518476D01*
X10668333Y-12518476D02*
X10658810Y-12499428D01*
X10658810Y-12499428D02*
X10649286Y-12461333D01*
X10649286Y-12461333D02*
X10649286Y-12413714D01*
X10649286Y-12413714D02*
X10658810Y-12375619D01*
X10658810Y-12375619D02*
X10668333Y-12356571D01*
X10668333Y-12356571D02*
X10677857Y-12347048D01*
X10677857Y-12347048D02*
X10696905Y-12337524D01*
X10887381Y-12337524D02*
X10906429Y-12337524D01*
X10906429Y-12337524D02*
X10925476Y-12347048D01*
X10925476Y-12347048D02*
X10935000Y-12356571D01*
X10935000Y-12356571D02*
X10944524Y-12375619D01*
X10944524Y-12375619D02*
X10954048Y-12413714D01*
X10954048Y-12413714D02*
X10954048Y-12461333D01*
X10954048Y-12461333D02*
X10944524Y-12499428D01*
X10944524Y-12499428D02*
X10935000Y-12518476D01*
X10935000Y-12518476D02*
X10925476Y-12528000D01*
X10925476Y-12528000D02*
X10906429Y-12537524D01*
X10906429Y-12537524D02*
X10887381Y-12537524D01*
X10887381Y-12537524D02*
X10868333Y-12528000D01*
X10868333Y-12528000D02*
X10858810Y-12518476D01*
X10858810Y-12518476D02*
X10849286Y-12499428D01*
X10849286Y-12499428D02*
X10839762Y-12461333D01*
X10839762Y-12461333D02*
X10839762Y-12413714D01*
X10839762Y-12413714D02*
X10849286Y-12375619D01*
X10849286Y-12375619D02*
X10858810Y-12356571D01*
X10858810Y-12356571D02*
X10868333Y-12347048D01*
X10868333Y-12347048D02*
X10887381Y-12337524D01*
X11039762Y-12537524D02*
X11039762Y-12404190D01*
X11039762Y-12423238D02*
X11049286Y-12413714D01*
X11049286Y-12413714D02*
X11068333Y-12404190D01*
X11068333Y-12404190D02*
X11096905Y-12404190D01*
X11096905Y-12404190D02*
X11115952Y-12413714D01*
X11115952Y-12413714D02*
X11125476Y-12432762D01*
X11125476Y-12432762D02*
X11125476Y-12537524D01*
X11125476Y-12432762D02*
X11135000Y-12413714D01*
X11135000Y-12413714D02*
X11154048Y-12404190D01*
X11154048Y-12404190D02*
X11182619Y-12404190D01*
X11182619Y-12404190D02*
X11201667Y-12413714D01*
X11201667Y-12413714D02*
X11211190Y-12432762D01*
X11211190Y-12432762D02*
X11211190Y-12537524D01*
X11306429Y-12537524D02*
X11306429Y-12404190D01*
X11306429Y-12423238D02*
X11315952Y-12413714D01*
X11315952Y-12413714D02*
X11335000Y-12404190D01*
X11335000Y-12404190D02*
X11363571Y-12404190D01*
X11363571Y-12404190D02*
X11382619Y-12413714D01*
X11382619Y-12413714D02*
X11392143Y-12432762D01*
X11392143Y-12432762D02*
X11392143Y-12537524D01*
X11392143Y-12432762D02*
X11401667Y-12413714D01*
X11401667Y-12413714D02*
X11420714Y-12404190D01*
X11420714Y-12404190D02*
X11449286Y-12404190D01*
X11449286Y-12404190D02*
X11468333Y-12413714D01*
X11468333Y-12413714D02*
X11477857Y-12432762D01*
X11477857Y-12432762D02*
X11477857Y-12537524D01*
X11868333Y-12328000D02*
X11696905Y-12585143D01*
X12125476Y-12337524D02*
X12144524Y-12337524D01*
X12144524Y-12337524D02*
X12163572Y-12347048D01*
X12163572Y-12347048D02*
X12173095Y-12356571D01*
X12173095Y-12356571D02*
X12182619Y-12375619D01*
X12182619Y-12375619D02*
X12192143Y-12413714D01*
X12192143Y-12413714D02*
X12192143Y-12461333D01*
X12192143Y-12461333D02*
X12182619Y-12499428D01*
X12182619Y-12499428D02*
X12173095Y-12518476D01*
X12173095Y-12518476D02*
X12163572Y-12528000D01*
X12163572Y-12528000D02*
X12144524Y-12537524D01*
X12144524Y-12537524D02*
X12125476Y-12537524D01*
X12125476Y-12537524D02*
X12106429Y-12528000D01*
X12106429Y-12528000D02*
X12096905Y-12518476D01*
X12096905Y-12518476D02*
X12087381Y-12499428D01*
X12087381Y-12499428D02*
X12077857Y-12461333D01*
X12077857Y-12461333D02*
X12077857Y-12413714D01*
X12077857Y-12413714D02*
X12087381Y-12375619D01*
X12087381Y-12375619D02*
X12096905Y-12356571D01*
X12096905Y-12356571D02*
X12106429Y-12347048D01*
X12106429Y-12347048D02*
X12125476Y-12337524D01*
X12277857Y-12518476D02*
X12287381Y-12528000D01*
X12287381Y-12528000D02*
X12277857Y-12537524D01*
X12277857Y-12537524D02*
X12268333Y-12528000D01*
X12268333Y-12528000D02*
X12277857Y-12518476D01*
X12277857Y-12518476D02*
X12277857Y-12537524D01*
X12411191Y-12337524D02*
X12430238Y-12337524D01*
X12430238Y-12337524D02*
X12449286Y-12347048D01*
X12449286Y-12347048D02*
X12458810Y-12356571D01*
X12458810Y-12356571D02*
X12468333Y-12375619D01*
X12468333Y-12375619D02*
X12477857Y-12413714D01*
X12477857Y-12413714D02*
X12477857Y-12461333D01*
X12477857Y-12461333D02*
X12468333Y-12499428D01*
X12468333Y-12499428D02*
X12458810Y-12518476D01*
X12458810Y-12518476D02*
X12449286Y-12528000D01*
X12449286Y-12528000D02*
X12430238Y-12537524D01*
X12430238Y-12537524D02*
X12411191Y-12537524D01*
X12411191Y-12537524D02*
X12392143Y-12528000D01*
X12392143Y-12528000D02*
X12382619Y-12518476D01*
X12382619Y-12518476D02*
X12373095Y-12499428D01*
X12373095Y-12499428D02*
X12363572Y-12461333D01*
X12363572Y-12461333D02*
X12363572Y-12413714D01*
X12363572Y-12413714D02*
X12373095Y-12375619D01*
X12373095Y-12375619D02*
X12382619Y-12356571D01*
X12382619Y-12356571D02*
X12392143Y-12347048D01*
X12392143Y-12347048D02*
X12411191Y-12337524D01*
X12668333Y-12537524D02*
X12554048Y-12537524D01*
X12611191Y-12537524D02*
X12611191Y-12337524D01*
X12611191Y-12337524D02*
X12592143Y-12366095D01*
X12592143Y-12366095D02*
X12573095Y-12385143D01*
X12573095Y-12385143D02*
X12554048Y-12394667D01*
X12849286Y-12337524D02*
X12754048Y-12337524D01*
X12754048Y-12337524D02*
X12744524Y-12432762D01*
X12744524Y-12432762D02*
X12754048Y-12423238D01*
X12754048Y-12423238D02*
X12773095Y-12413714D01*
X12773095Y-12413714D02*
X12820714Y-12413714D01*
X12820714Y-12413714D02*
X12839762Y-12423238D01*
X12839762Y-12423238D02*
X12849286Y-12432762D01*
X12849286Y-12432762D02*
X12858810Y-12451809D01*
X12858810Y-12451809D02*
X12858810Y-12499428D01*
X12858810Y-12499428D02*
X12849286Y-12518476D01*
X12849286Y-12518476D02*
X12839762Y-12528000D01*
X12839762Y-12528000D02*
X12820714Y-12537524D01*
X12820714Y-12537524D02*
X12773095Y-12537524D01*
X12773095Y-12537524D02*
X12754048Y-12528000D01*
X12754048Y-12528000D02*
X12744524Y-12518476D01*
X12925476Y-12337524D02*
X13058810Y-12337524D01*
X13058810Y-12337524D02*
X12973095Y-12537524D01*
X13125476Y-12337524D02*
X13125476Y-12375619D01*
X13201667Y-12337524D02*
X13201667Y-12375619D01*
X13496905Y-12613714D02*
X13487381Y-12604190D01*
X13487381Y-12604190D02*
X13468334Y-12575619D01*
X13468334Y-12575619D02*
X13458810Y-12556571D01*
X13458810Y-12556571D02*
X13449286Y-12528000D01*
X13449286Y-12528000D02*
X13439762Y-12480381D01*
X13439762Y-12480381D02*
X13439762Y-12442286D01*
X13439762Y-12442286D02*
X13449286Y-12394667D01*
X13449286Y-12394667D02*
X13458810Y-12366095D01*
X13458810Y-12366095D02*
X13468334Y-12347048D01*
X13468334Y-12347048D02*
X13487381Y-12318476D01*
X13487381Y-12318476D02*
X13496905Y-12308952D01*
X13554048Y-12337524D02*
X13677857Y-12337524D01*
X13677857Y-12337524D02*
X13611191Y-12413714D01*
X13611191Y-12413714D02*
X13639762Y-12413714D01*
X13639762Y-12413714D02*
X13658810Y-12423238D01*
X13658810Y-12423238D02*
X13668334Y-12432762D01*
X13668334Y-12432762D02*
X13677857Y-12451809D01*
X13677857Y-12451809D02*
X13677857Y-12499428D01*
X13677857Y-12499428D02*
X13668334Y-12518476D01*
X13668334Y-12518476D02*
X13658810Y-12528000D01*
X13658810Y-12528000D02*
X13639762Y-12537524D01*
X13639762Y-12537524D02*
X13582619Y-12537524D01*
X13582619Y-12537524D02*
X13563572Y-12528000D01*
X13563572Y-12528000D02*
X13554048Y-12518476D01*
X13754048Y-12356571D02*
X13763572Y-12347048D01*
X13763572Y-12347048D02*
X13782619Y-12337524D01*
X13782619Y-12337524D02*
X13830238Y-12337524D01*
X13830238Y-12337524D02*
X13849286Y-12347048D01*
X13849286Y-12347048D02*
X13858810Y-12356571D01*
X13858810Y-12356571D02*
X13868334Y-12375619D01*
X13868334Y-12375619D02*
X13868334Y-12394667D01*
X13868334Y-12394667D02*
X13858810Y-12423238D01*
X13858810Y-12423238D02*
X13744524Y-12537524D01*
X13744524Y-12537524D02*
X13868334Y-12537524D01*
X14106429Y-12537524D02*
X14106429Y-12337524D01*
X14192143Y-12537524D02*
X14192143Y-12432762D01*
X14192143Y-12432762D02*
X14182619Y-12413714D01*
X14182619Y-12413714D02*
X14163572Y-12404190D01*
X14163572Y-12404190D02*
X14135000Y-12404190D01*
X14135000Y-12404190D02*
X14115953Y-12413714D01*
X14115953Y-12413714D02*
X14106429Y-12423238D01*
X14315953Y-12537524D02*
X14296905Y-12528000D01*
X14296905Y-12528000D02*
X14287381Y-12518476D01*
X14287381Y-12518476D02*
X14277857Y-12499428D01*
X14277857Y-12499428D02*
X14277857Y-12442286D01*
X14277857Y-12442286D02*
X14287381Y-12423238D01*
X14287381Y-12423238D02*
X14296905Y-12413714D01*
X14296905Y-12413714D02*
X14315953Y-12404190D01*
X14315953Y-12404190D02*
X14344524Y-12404190D01*
X14344524Y-12404190D02*
X14363572Y-12413714D01*
X14363572Y-12413714D02*
X14373096Y-12423238D01*
X14373096Y-12423238D02*
X14382619Y-12442286D01*
X14382619Y-12442286D02*
X14382619Y-12499428D01*
X14382619Y-12499428D02*
X14373096Y-12518476D01*
X14373096Y-12518476D02*
X14363572Y-12528000D01*
X14363572Y-12528000D02*
X14344524Y-12537524D01*
X14344524Y-12537524D02*
X14315953Y-12537524D01*
X14496905Y-12537524D02*
X14477857Y-12528000D01*
X14477857Y-12528000D02*
X14468334Y-12508952D01*
X14468334Y-12508952D02*
X14468334Y-12337524D01*
X14649286Y-12528000D02*
X14630238Y-12537524D01*
X14630238Y-12537524D02*
X14592143Y-12537524D01*
X14592143Y-12537524D02*
X14573096Y-12528000D01*
X14573096Y-12528000D02*
X14563572Y-12508952D01*
X14563572Y-12508952D02*
X14563572Y-12432762D01*
X14563572Y-12432762D02*
X14573096Y-12413714D01*
X14573096Y-12413714D02*
X14592143Y-12404190D01*
X14592143Y-12404190D02*
X14630238Y-12404190D01*
X14630238Y-12404190D02*
X14649286Y-12413714D01*
X14649286Y-12413714D02*
X14658810Y-12432762D01*
X14658810Y-12432762D02*
X14658810Y-12451809D01*
X14658810Y-12451809D02*
X14563572Y-12470857D01*
X14735000Y-12528000D02*
X14754048Y-12537524D01*
X14754048Y-12537524D02*
X14792143Y-12537524D01*
X14792143Y-12537524D02*
X14811191Y-12528000D01*
X14811191Y-12528000D02*
X14820715Y-12508952D01*
X14820715Y-12508952D02*
X14820715Y-12499428D01*
X14820715Y-12499428D02*
X14811191Y-12480381D01*
X14811191Y-12480381D02*
X14792143Y-12470857D01*
X14792143Y-12470857D02*
X14763572Y-12470857D01*
X14763572Y-12470857D02*
X14744524Y-12461333D01*
X14744524Y-12461333D02*
X14735000Y-12442286D01*
X14735000Y-12442286D02*
X14735000Y-12432762D01*
X14735000Y-12432762D02*
X14744524Y-12413714D01*
X14744524Y-12413714D02*
X14763572Y-12404190D01*
X14763572Y-12404190D02*
X14792143Y-12404190D01*
X14792143Y-12404190D02*
X14811191Y-12413714D01*
X14887381Y-12613714D02*
X14896905Y-12604190D01*
X14896905Y-12604190D02*
X14915953Y-12575619D01*
X14915953Y-12575619D02*
X14925477Y-12556571D01*
X14925477Y-12556571D02*
X14935000Y-12528000D01*
X14935000Y-12528000D02*
X14944524Y-12480381D01*
X14944524Y-12480381D02*
X14944524Y-12442286D01*
X14944524Y-12442286D02*
X14935000Y-12394667D01*
X14935000Y-12394667D02*
X14925477Y-12366095D01*
X14925477Y-12366095D02*
X14915953Y-12347048D01*
X14915953Y-12347048D02*
X14896905Y-12318476D01*
X14896905Y-12318476D02*
X14887381Y-12308952D01*
M02*
